<svg width="118" height="119" viewBox="0 0 118 119" fill="none" xmlns="http://www.w3.org/2000/svg">
<g filter="url(#filter0_d_324_9135)">
<rect x="25.6572" y="18.8447" width="67.2794" height="67.2794" rx="24" fill="url(#paint0_linear_324_9135)"/>
</g>
<path fill-rule="evenodd" clip-rule="evenodd" d="M43.1358 33.6318C41.2442 33.6318 39.7054 35.1709 39.7054 37.0625V39.7113H46.5665V37.0625C46.5665 35.1709 45.0274 33.6318 43.1358 33.6318ZM72.5927 64.8112V38.154C72.5927 35.6566 70.5682 33.6318 68.0708 33.6318H46.7554C47.6048 34.5276 48.1298 35.7337 48.1298 37.0625V68.7229C48.1298 70.5681 49.5448 72.158 51.3877 72.2489C53.3575 72.3458 54.9909 70.7713 54.9909 68.8224V64.8133H72.5929C72.5929 64.8125 72.5927 64.812 72.5927 64.8112ZM54.5646 59.0791H66.6289V61.1635H54.5646V59.0791ZM54.5646 53.9548H66.6289V56.0392H54.5646V53.9548ZM54.5646 48.8306H66.6289V50.915H54.5646V48.8306ZM54.5646 43.7066H66.6289V45.791H54.5646V43.7066ZM54.5646 38.5823H66.6289V40.6667H54.5646V38.5823ZM56.5542 66.3766V68.8224C56.5542 70.1512 56.0292 71.3573 55.1798 72.2531H74.7203C76.6119 72.2531 78.1507 70.7143 78.1507 68.8224V66.3766H56.5542Z" fill="white"/>
<defs>
<filter id="filter0_d_324_9135" x="0.657227" y="0.844727" width="117.279" height="117.279" filterUnits="userSpaceOnUse" color-interpolation-filters="sRGB">
<feFlood flood-opacity="0" result="BackgroundImageFix"/>
<feColorMatrix in="SourceAlpha" type="matrix" values="0 0 0 0 0 0 0 0 0 0 0 0 0 0 0 0 0 0 127 0" result="hardAlpha"/>
<feOffset dy="7"/>
<feGaussianBlur stdDeviation="12.5"/>
<feColorMatrix type="matrix" values="0 0 0 0 0.219608 0 0 0 0 0.454902 0 0 0 0 1 0 0 0 0.5 0"/>
<feBlend mode="normal" in2="BackgroundImageFix" result="effect1_dropShadow_324_9135"/>
<feBlend mode="normal" in="SourceGraphic" in2="effect1_dropShadow_324_9135" result="shape"/>
</filter>
<linearGradient id="paint0_linear_324_9135" x1="86.8203" y1="73.8915" x2="25.6572" y2="28.5289" gradientUnits="userSpaceOnUse">
<stop stop-color="#3874FF"/>
<stop offset="1" stop-color="#3874FF" stop-opacity="0.87"/>
</linearGradient>
</defs>
</svg>
