<svg width="122" height="123" viewBox="0 0 122 123" fill="none" xmlns="http://www.w3.org/2000/svg">
<g filter="url(#filter0_d_324_9145)">
<rect x="25.0854" y="18.2363" width="71.8876" height="71.8876" rx="24" fill="url(#paint0_linear_324_9145)"/>
</g>
<path fill-rule="evenodd" clip-rule="evenodd" d="M61.2076 55.9265C65.4255 55.9265 68.8447 52.5073 68.8447 48.2894C68.8447 44.0716 65.4255 40.6523 61.2076 40.6523C56.9898 40.6523 53.5706 44.0716 53.5706 48.2894C53.5706 52.5073 56.9898 55.9265 61.2076 55.9265Z" fill="white"/>
<path fill-rule="evenodd" clip-rule="evenodd" d="M67.8352 55.0727C66.1181 56.7099 63.7807 57.7173 61.2055 57.7173C58.6303 57.7173 56.2928 56.7099 54.5758 55.0727C54.2801 54.9994 53.9844 54.927 53.6972 54.8904C53.41 54.8537 53.1322 54.8537 52.8732 54.8938C52.615 54.933 52.3764 55.0131 52.0977 55.1128C51.819 55.2117 51.5012 55.331 51.1032 55.5696C50.7061 55.8082 50.2281 56.1662 49.7713 56.7636C49.3137 57.3593 48.8766 58.1954 48.4786 59.19C48.0807 60.1837 47.7228 61.3377 47.5242 62.4516C47.3257 63.5646 47.2856 64.6393 47.266 65.4541C47.2456 66.2697 47.2456 66.8271 47.3257 67.364C47.4049 67.9009 47.5634 68.4174 47.9222 68.9347C48.2801 69.452 48.8365 69.9694 49.4927 70.3665C50.1488 70.7645 50.9047 71.0432 51.9392 71.1821C52.9729 71.321 54.2852 71.321 55.8761 71.321H60.4897H61.2055H61.9213H66.5348C68.1258 71.321 69.4381 71.321 70.4718 71.1821C71.5063 71.0432 72.2621 70.7645 72.9183 70.3665C73.5745 69.9694 74.1309 69.452 74.4888 68.9347C74.8476 68.4174 75.0061 67.9009 75.0853 67.364C75.1654 66.8271 75.1654 66.2697 75.145 65.4541C75.1254 64.6393 75.0853 63.5646 74.8868 62.4516C74.6882 61.3377 74.3303 60.1837 73.9324 59.19C73.5344 58.1954 73.0972 57.3593 72.6396 56.7636C72.1829 56.1662 71.7048 55.8082 71.3077 55.5696C70.9098 55.331 70.5919 55.2117 70.3133 55.1128C70.0346 55.0131 69.796 54.933 69.5378 54.8938C69.2788 54.8537 69.001 54.8537 68.7138 54.8904C68.4266 54.927 68.1309 54.9994 67.8352 55.0727Z" fill="white"/>
<path fill-rule="evenodd" clip-rule="evenodd" d="M69.3445 52.0536C70.7018 53.2928 72.509 54.0496 74.4917 54.0496C78.7085 54.0496 82.1269 50.6303 82.1269 46.4125C82.1269 42.1947 78.7085 38.7754 74.4917 38.7754C71.7839 38.7754 69.4041 40.1859 68.0494 42.3123C69.5779 43.7083 70.5373 45.7196 70.5373 47.9534C70.5373 49.4619 70.0994 50.8698 69.3445 52.0536Z" fill="white"/>
<path fill-rule="evenodd" clip-rule="evenodd" d="M52.4537 52.0536C51.0964 53.2928 49.2892 54.0496 47.3065 54.0496C43.0897 54.0496 39.6713 50.6303 39.6713 46.4125C39.6713 42.1947 43.0897 38.7754 47.3065 38.7754C50.0143 38.7754 52.394 40.1859 53.7488 42.3123C52.2202 43.7083 51.2608 45.7196 51.2608 47.9534C51.2608 49.4619 51.6988 50.8698 52.4537 52.0536Z" fill="white"/>
<path fill-rule="evenodd" clip-rule="evenodd" d="M80.6978 53.477C79.0312 55.0648 76.7815 56.0611 74.2965 56.119L74.571 56.448C75.0288 57.0437 75.4661 57.8798 75.8642 58.8744C76.2623 59.8681 76.6204 61.0221 76.819 62.136C77.0176 63.249 77.0577 64.3237 77.0773 65.1385C77.0977 65.9541 77.0977 66.5115 77.0176 67.0484C76.9383 67.5853 76.7798 68.1018 76.4209 68.6191C76.1541 69.0043 75.7773 69.3904 75.3314 69.7253H79.3969C80.9885 69.7253 82.3013 69.7253 83.3353 69.5864C84.3702 69.4475 85.1264 69.1688 85.7828 68.7708C86.4392 68.3737 86.9959 67.8563 87.3539 67.339C87.7128 66.8217 87.8714 66.3052 87.9506 65.7683C88.0308 65.2314 88.0308 64.674 88.0103 63.8584C87.9907 63.0436 87.9506 61.9689 87.752 60.8559C87.5534 59.742 87.1953 58.588 86.7972 57.5943C86.3991 56.5997 85.9618 55.7636 85.504 55.1679C85.0471 54.5705 84.5689 54.2125 84.1716 53.9739C83.7735 53.7353 83.4555 53.616 83.1768 53.5171C82.898 53.4174 82.6593 53.3373 82.401 53.2981C82.1419 53.258 81.864 53.258 81.5767 53.2947C81.2894 53.3313 80.9936 53.4037 80.6978 53.477Z" fill="white"/>
<path fill-rule="evenodd" clip-rule="evenodd" d="M41.099 53.477C42.7656 55.0648 45.0153 56.0611 47.5002 56.119L47.2257 56.448C46.768 57.0437 46.3306 57.8798 45.9325 58.8744C45.5344 59.8681 45.1764 61.0221 44.9778 62.136C44.7791 63.249 44.7391 64.3237 44.7195 65.1385C44.699 65.9541 44.699 66.5115 44.7791 67.0484C44.8584 67.5853 45.017 68.1018 45.3759 68.6191C45.6427 69.0043 46.0195 69.3904 46.4653 69.7253H42.3999C40.8083 69.7253 39.4955 69.7253 38.4614 69.5864C37.4265 69.4475 36.6704 69.1688 36.014 68.7708C35.3576 68.3737 34.8009 67.8563 34.4428 67.339C34.084 66.8217 33.9254 66.3052 33.8461 65.7683C33.766 65.2314 33.766 64.674 33.7864 63.8584C33.806 63.0436 33.8461 61.9689 34.0447 60.8559C34.2434 59.742 34.6014 58.588 34.9995 57.5943C35.3976 56.5997 35.8349 55.7636 36.2927 55.1679C36.7497 54.5705 37.2279 54.2125 37.6251 53.9739C38.0233 53.7353 38.3412 53.616 38.62 53.5171C38.8987 53.4174 39.1374 53.3373 39.3957 53.2981C39.6549 53.258 39.9328 53.258 40.2201 53.2947C40.5074 53.3313 40.8032 53.4037 41.099 53.477Z" fill="white"/>
<defs>
<filter id="filter0_d_324_9145" x="0.0854492" y="0.236328" width="121.888" height="121.888" filterUnits="userSpaceOnUse" color-interpolation-filters="sRGB">
<feFlood flood-opacity="0" result="BackgroundImageFix"/>
<feColorMatrix in="SourceAlpha" type="matrix" values="0 0 0 0 0 0 0 0 0 0 0 0 0 0 0 0 0 0 127 0" result="hardAlpha"/>
<feOffset dy="7"/>
<feGaussianBlur stdDeviation="12.5"/>
<feColorMatrix type="matrix" values="0 0 0 0 0.219608 0 0 0 0 0.454902 0 0 0 0 1 0 0 0 0.5 0"/>
<feBlend mode="normal" in2="BackgroundImageFix" result="effect1_dropShadow_324_9145"/>
<feBlend mode="normal" in="SourceGraphic" in2="effect1_dropShadow_324_9145" result="shape"/>
</filter>
<linearGradient id="paint0_linear_324_9145" x1="90.4378" y1="77.0534" x2="25.0854" y2="28.5838" gradientUnits="userSpaceOnUse">
<stop stop-color="#3874FF"/>
<stop offset="1" stop-color="#3874FF" stop-opacity="0.87"/>
</linearGradient>
</defs>
</svg>
