<svg width="118" height="118" viewBox="0 0 118 118" fill="none" xmlns="http://www.w3.org/2000/svg">
<g filter="url(#filter0_d_324_9122)">
<rect x="24.9998" y="18" width="67.7342" height="67.7342" rx="24" fill="url(#paint0_linear_324_9122)"/>
</g>
<path fill-rule="evenodd" clip-rule="evenodd" d="M53.3603 52.1797C56.9704 52.1797 59.8969 49.2531 59.8969 45.6431C59.8969 42.033 56.9704 39.1064 53.3603 39.1064C49.7502 39.1064 46.8237 42.033 46.8237 45.6431C46.8237 49.2531 49.7502 52.1797 53.3603 52.1797Z" fill="white"/>
<path fill-rule="evenodd" clip-rule="evenodd" d="M59.0355 51.4478C57.5658 52.8491 55.5652 53.7113 53.361 53.7113C51.1569 53.7113 49.1563 52.8491 47.6866 51.4478C47.4335 51.3851 47.1804 51.3231 46.9346 51.2917C46.6888 51.2604 46.4511 51.2604 46.2293 51.2946C46.0083 51.3282 45.8041 51.3968 45.5656 51.4821C45.3271 51.5667 45.0551 51.6689 44.7144 51.8731C44.3746 52.0773 43.9654 52.3837 43.5745 52.8951C43.1828 53.405 42.8086 54.1205 42.468 54.9718C42.1274 55.8224 41.8211 56.81 41.6511 57.7634C41.4812 58.7161 41.4469 59.6359 41.4301 60.3333C41.4126 61.0314 41.4126 61.5085 41.4812 61.968C41.549 62.4276 41.6847 62.8696 41.9917 63.3124C42.2981 63.7552 42.7743 64.198 43.336 64.5379C43.8976 64.8785 44.5445 65.1171 45.4299 65.236C46.3147 65.3549 47.4379 65.3549 48.7996 65.3549H52.7484H53.361H53.9737H57.9225C59.2842 65.3549 60.4074 65.3549 61.2921 65.236C62.1776 65.1171 62.8245 64.8785 63.3861 64.5379C63.9477 64.198 64.424 63.7552 64.7303 63.3124C65.0374 62.8696 65.173 62.4276 65.2409 61.968C65.3094 61.5085 65.3094 61.0314 65.2919 60.3333C65.2752 59.6359 65.2409 58.7161 65.0709 57.7634C64.901 56.81 64.5947 55.8224 64.254 54.9718C63.9134 54.1205 63.5393 53.405 63.1476 52.8951C62.7567 52.3837 62.3475 52.0773 62.0076 51.8731C61.667 51.6689 61.3949 51.5667 61.1564 51.4821C60.9179 51.3968 60.7137 51.3282 60.4927 51.2946C60.271 51.2604 60.0332 51.2604 59.7874 51.2917C59.5416 51.3231 59.2885 51.3851 59.0355 51.4478Z" fill="white"/>
<path fill-rule="evenodd" clip-rule="evenodd" d="M60.328 48.8639C61.4898 49.9245 63.0365 50.5723 64.7336 50.5723C68.3427 50.5723 71.2686 47.6457 71.2686 44.0357C71.2686 40.4256 68.3427 37.499 64.7336 37.499C62.4159 37.499 60.3791 38.7063 59.2195 40.5263C60.5279 41.7211 61.349 43.4426 61.349 45.3545C61.349 46.6456 60.9742 47.8507 60.328 48.8639Z" fill="white"/>
<path fill-rule="evenodd" clip-rule="evenodd" d="M70.0474 50.0816C68.6209 51.4406 66.6954 52.2933 64.5685 52.3429L64.8034 52.6245C65.1952 53.1344 65.5695 53.85 65.9103 54.7012C66.251 55.5518 66.5575 56.5395 66.7275 57.4929C66.8975 58.4455 66.9318 59.3654 66.9486 60.0627C66.9661 60.7608 66.9661 61.2379 66.8975 61.6974C66.8296 62.157 66.6939 62.599 66.3867 63.0418C66.1584 63.3715 65.8359 63.702 65.4543 63.9887H68.9339C70.2962 63.9887 71.4198 63.9887 72.3049 63.8698C73.1907 63.7509 73.8378 63.5123 74.3997 63.1717C74.9615 62.8317 75.4379 62.389 75.7444 61.9462C76.0516 61.5034 76.1873 61.0614 76.2551 60.6018C76.3237 60.1422 76.3237 59.6652 76.3062 58.9671C76.2894 58.2697 76.2551 57.3499 76.0851 56.3972C75.9151 55.4438 75.6087 54.4562 75.2679 53.6056C74.9272 52.7543 74.5529 52.0387 74.1611 51.5289C73.77 51.0175 73.3607 50.7111 73.0206 50.5069C72.6799 50.3026 72.4077 50.2005 72.1692 50.1159C71.9306 50.0306 71.7263 49.962 71.5052 49.9284C71.2834 49.8941 71.0455 49.8941 70.7996 49.9255C70.5537 49.9569 70.3005 50.0189 70.0474 50.0816Z" fill="white"/>
<defs>
<filter id="filter0_d_324_9122" x="-0.000244141" y="0" width="117.734" height="117.734" filterUnits="userSpaceOnUse" color-interpolation-filters="sRGB">
<feFlood flood-opacity="0" result="BackgroundImageFix"/>
<feColorMatrix in="SourceAlpha" type="matrix" values="0 0 0 0 0 0 0 0 0 0 0 0 0 0 0 0 0 0 127 0" result="hardAlpha"/>
<feOffset dy="7"/>
<feGaussianBlur stdDeviation="12.5"/>
<feColorMatrix type="matrix" values="0 0 0 0 0.219608 0 0 0 0 0.454902 0 0 0 0 1 0 0 0 0.5 0"/>
<feBlend mode="normal" in2="BackgroundImageFix" result="effect1_dropShadow_324_9122"/>
<feBlend mode="normal" in="SourceGraphic" in2="effect1_dropShadow_324_9122" result="shape"/>
</filter>
<linearGradient id="paint0_linear_324_9122" x1="86.5763" y1="73.4189" x2="24.9998" y2="27.7496" gradientUnits="userSpaceOnUse">
<stop stop-color="#3874FF"/>
<stop offset="1" stop-color="#3874FF" stop-opacity="0.87"/>
</linearGradient>
</defs>
</svg>
